# xmcd CD database file
#
# Track frame offsets:
#	150
#	32590
#	51821
#	73509
#	86092
#	111003
#	138560
#	160033
#	197112
#	217435
#	250184
#
# Disc length: 3429 seconds
#
# Revision: 1
# Processed by: cddbd v1.5.2PL0 Copyright (c) Steve Scherf et al.
# Submitted via: CDex 1.70beta2
#
DISCID=a00d630b
DTITLE=mathieu donarier - live forms
DYEAR=2009
DGENRE=Jazz
TTITLE0=au bal de l'anarchYste
TTITLE1=Le roi des cons
TTITLE2=abrakadabra
TTITLE3=au refuge
TTITLE4=gnossienne
TTITLE5=le temps ne fait rien à l'affaire
TTITLE6=tipperary
TTITLE7=novosibirsk
TTITLE8=underwater scenes (with Lili)
TTITLE9=Il pleut dans ma chambre
TTITLE10=butterfly me (butterfly you)
EXTD=YEAR: 2009
EXTT0=
EXTT1=
EXTT2=
EXTT3=
EXTT4=
EXTT5=
EXTT6=
EXTT7=
EXTT8=
EXTT9=
EXTT10=
PLAYORDER=
